<svg width="50" height="50" viewBox="0 0 50 50" fill="none" xmlns="http://www.w3.org/2000/svg">
<path d="M49.4198 35.7737C47.4761 35.3819 46.0107 36.7858 44.1756 34.6937C43.6961 34.1474 43.0034 34.4554 42.7837 35.1207C41.2086 39.8959 37.9322 37.5889 36.431 34.2442C36.1401 33.5968 35.3166 33.6529 35.0138 34.2442C33.9762 37.1931 31.9781 37.5562 29.0191 35.3338C28.5492 34.8562 27.7782 35.0168 27.6015 35.7685C26.3133 41.2502 21.8117 39.7442 20.4248 35.2397C20.355 35.0128 20.2048 34.9028 20.0487 34.883C19.7332 34.4243 19.0185 34.2868 18.7723 34.9302C16.9982 39.5626 13.7053 38.8535 11.6558 34.9364C11.2858 34.2294 10.5221 34.4745 10.2795 35.1454C8.55587 39.911 3.53353 39.8016 3.62297 34.0728C3.63279 33.4384 2.81515 33.3138 2.67688 33.9242C1.05912 41.0637 8.57923 42.3018 11.1842 37.0611C13.8749 40.6154 17.9098 41.3449 19.834 36.5614C21.4757 41.8076 26.8385 42.8395 28.8318 37.6194C31.363 39.5839 33.7742 39.2753 35.6765 36.4843C37.9965 40.3321 42.1303 41.7497 43.9654 37.0016C45.6495 38.3254 46.7668 37.3993 49.2035 37.6262C50.113 37.7113 50.3208 35.9556 49.4198 35.7737Z" fill="#00B2A0"/>
<path d="M46.3749 43.4666C45.6125 44.9217 45.349 46.2258 43.7158 46.937C41.7055 47.8132 39.7046 45.7226 38.7139 44.0085C38.3721 43.4169 37.543 43.3032 37.2238 44.0085C35.8244 47.1004 32.7253 46.3454 31.4029 43.3614C31.0778 42.6274 29.9783 42.7584 29.8433 43.5982C29.1002 48.2238 25.7638 48.7134 23.5293 45.3607C23.7732 44.458 22.501 43.8436 22.1541 44.7272C20.2784 49.5066 16.6164 48.9727 14.491 44.7074C14.1221 43.9672 13.2957 44.2268 13.0574 44.9251C11.33 49.9885 8.63958 47.5798 7.12982 44.0945C6.83578 43.4154 5.99718 43.6506 5.8199 44.2934C4.99483 47.2869 3.63555 47.8459 1.34558 48.6203C0.914331 48.7664 0.980942 49.6358 1.45518 49.5624C4.079 49.1561 5.51206 48.6138 6.58447 46.3439C8.78766 50.3406 11.8634 51.1569 13.9273 46.9515C16.6034 50.8431 20.9023 51.2867 23.0323 46.6568C25.3981 50.3955 29.3658 50.2114 30.9547 46.1373C33.0045 48.9462 35.9879 49.3408 38.052 46.1974C41.1238 49.7853 47.4062 50.5884 47.6302 43.8624C47.658 43.0602 46.7122 42.8225 46.3749 43.4666Z" fill="#00B2A0"/>
<path d="M14.1106 7.50507C13.5963 7.67894 13.3935 8.12751 13.4092 8.58039C9.76498 9.20592 7.40574 13.383 7.12417 17.5844C6.7391 23.3329 10.9422 26.7096 15.4993 26.2808C20.1589 25.8427 23.1901 21.0025 23.0531 15.8006C22.9162 10.605 18.6794 5.95774 14.1106 7.50507ZM14.8693 23.6529C11.5247 23.9716 9.36107 21.3478 9.42502 17.5844C9.49217 13.6401 12.0937 11.039 15.1095 9.99916C15.1647 9.98005 15.2045 9.94737 15.2493 9.91839C18.1892 10.4511 20.4126 11.7506 20.725 15.8C21.0493 20.0005 18.3944 23.3162 14.8693 23.6529Z" fill="#00B2A0"/>
<path d="M9.86946 7.3313C9.32092 6.63795 8.7132 6.02876 8.09088 5.42759C7.47387 4.83135 6.81944 3.67771 5.94952 3.77205C5.48882 3.822 5.17673 4.16143 5.14462 4.70711C5.08358 5.74266 5.96252 6.25135 6.60182 6.77946C7.33268 7.38279 8.09194 7.92261 8.77025 8.60856C9.52287 9.37005 10.5528 8.19483 9.86946 7.3313Z" fill="#00B2A0"/>
<path d="M4.82636 10.4497C5.11881 10.4907 4.86033 10.4414 4.7831 10.4133C4.66448 10.3699 4.54824 10.3178 4.43227 10.266C4.3009 10.2077 4.17087 10.1448 4.04109 10.0819C4.03234 10.0776 4.02756 10.0755 4.01456 10.0687C3.89089 9.79275 3.67832 9.57047 3.40471 9.47089C2.91614 9.29239 2.17308 8.86602 1.64497 9.05871C1.34641 9.16784 1.03353 9.45486 0.975411 9.83653C0.975411 9.83653 0.975146 9.83807 0.975146 9.83869C0.919947 10.2003 0.943831 10.6708 1.22168 10.9223C1.3764 11.0617 1.55739 11.1603 1.74608 11.2454C1.59322 11.2448 1.71662 11.2531 1.85488 11.2904C1.95281 11.3296 2.04941 11.3697 2.15025 11.4008C2.39334 11.4958 2.63617 11.5923 2.87793 11.6906C3.01672 11.7476 3.15976 11.7526 3.29803 11.7236C3.79509 11.8771 4.33938 12.051 4.82662 12.0165C5.71247 11.9536 5.67452 10.569 4.82636 10.4497Z" fill="#00B2A0"/>
<path d="M3.30909 19.2586C2.93703 19.6208 2.50286 19.9048 2.07985 20.177C1.86117 20.3179 1.63507 20.4637 1.40074 20.5664C1.26035 20.6277 1.0369 20.5762 1.3458 20.6419C1.19241 20.6095 1.04698 20.6061 0.894389 20.587C-0.391914 20.4258 -0.27488 23.124 1.14305 22.7219C1.66532 22.574 2.199 21.995 2.64299 21.6241C3.15809 21.194 3.6724 20.7239 4.09701 20.1739C4.58239 19.5456 3.85604 18.7255 3.30909 19.2586Z" fill="#00B2A0"/>
<path d="M6.58671 24.6062C6.15096 25.3831 5.75368 26.1883 5.33916 26.9803C4.88987 27.8383 4.12875 28.478 4.02897 29.5047C3.96528 30.1601 4.58308 30.4847 5.03927 30.3987C5.97209 30.223 6.42722 28.8437 6.76823 27.9502C7.12013 27.0284 7.33641 26.0616 7.61825 25.1109C7.8348 24.3787 6.92189 24.0081 6.58671 24.6062Z" fill="#00B2A0"/>
<path d="M15.4027 27.3984C15.3109 26.8499 14.5808 26.8762 14.4738 27.3984C14.1931 28.7712 13.8643 30.1323 13.5885 31.5064C13.5219 31.8381 13.5792 32.222 13.8056 32.4606C13.7685 32.4029 13.7727 32.4143 13.8181 32.4942C14.088 33.0066 14.6551 32.948 14.9348 32.4942C14.6793 32.9085 15.1158 32.2935 15.1315 32.262C15.2344 32.0576 15.2432 31.8431 15.2541 31.6137C15.2769 31.1389 15.3249 30.6654 15.3639 30.1922C15.4406 29.2694 15.5566 28.3168 15.4027 27.3984Z" fill="#00B2A0"/>
<path d="M25.0979 28.2096C24.4304 27.0973 23.3705 26.3833 22.7638 25.2346C22.3485 24.4478 21.3974 25.1332 21.7182 25.9446C21.9964 26.6478 22.4212 27.2317 22.8599 27.8073C23.0693 28.082 23.2837 28.3502 23.4679 28.6486C23.7192 29.0559 23.8225 29.5134 24.3123 29.5926C24.5942 29.6383 24.9158 29.5735 25.0581 29.2396C25.0713 29.2088 25.0846 29.178 25.0976 29.1468C25.2192 28.8626 25.2659 28.4899 25.0979 28.2096Z" fill="#00B2A0"/>
<path d="M28.981 19.9104C27.8577 19.9792 26.734 20.0452 25.6107 20.1102C24.5998 20.1688 24.5998 21.8736 25.6107 21.9325C26.7343 21.9979 27.8577 22.0639 28.981 22.132C30.2145 22.2075 30.2145 19.8355 28.981 19.9104Z" fill="#00B2A0"/>
<path d="M28.9814 7.09895C27.9623 7.07429 27.1386 8.49614 26.5279 9.32206C25.8716 10.2093 25.295 11.1709 24.6259 12.0464C24.1148 12.7154 24.9027 13.6419 25.4725 13.0299C26.1471 12.3048 26.7596 11.5079 27.4071 10.751C27.7728 10.3237 28.1513 9.89332 28.5663 9.53046C29.0767 9.08498 29.4776 8.94039 29.7045 8.20141C29.8731 7.65295 29.4394 7.11005 28.9814 7.09895Z" fill="#00B2A0"/>
<path d="M24.085 1.29629C23.4818 1.74579 23.0795 2.47583 22.665 3.14328C22.1817 3.92142 21.7223 4.70325 21.1634 5.41294C20.5305 6.21666 21.5151 7.37307 22.1947 6.61097C22.7223 6.01905 23.1894 5.37379 23.6471 4.70911C24.1386 3.99571 24.7724 3.34244 25.1768 2.56431C25.5828 1.78371 24.7655 0.78946 24.085 1.29629Z" fill="#00B2A0"/>
<path d="M16.5488 0.226596C16.2548 -0.075532 15.87 -0.075532 15.5759 0.226596C14.9987 0.819753 15.2649 1.85531 15.3129 2.64485C15.3681 3.55062 15.4273 4.45546 15.4982 5.36C15.5642 6.20349 16.5605 6.20349 16.6266 5.36C16.6974 4.45515 16.7566 3.55093 16.8118 2.64485C16.8598 1.85562 17.126 0.819445 16.5488 0.226596Z" fill="#00B2A0"/>
</svg>
