<svg width="297" height="15" viewBox="0 0 297 15" fill="none" xmlns="http://www.w3.org/2000/svg">
<path d="M288.395 1.23264C283.543 4.29896 281.866 7.04695 271.473 8.54568C258.68 10.392 245.946 5.98673 239.641 2.37471C237.466 1.12805 232.19 0.888328 230.158 2.37471C221.253 8.88999 201.53 7.29901 193.115 1.01111C191.046 -0.53569 184.049 -0.259588 183.189 1.51004C178.46 11.2573 157.228 12.2889 143.008 5.22405C144.56 3.3219 136.464 2.02715 134.256 3.88903C122.319 13.9605 99.0147 12.8353 85.4886 3.84746C83.1411 2.28766 77.882 2.83467 76.3654 4.30611C65.3726 14.9759 48.2509 9.90019 38.643 2.55597C36.7717 1.1248 31.4349 1.62047 30.3067 2.97498C25.0561 9.28302 16.4057 10.4608 1.83254 12.0927C-0.911857 12.4007 -0.487954 14.2327 2.53004 14.078C19.2278 13.2218 28.3477 12.0791 35.1724 7.29576C49.1933 15.7177 68.7672 17.438 81.9015 8.57622C98.9319 16.7767 126.29 17.7115 139.845 7.95515C154.901 15.8334 180.151 15.4455 190.262 6.8605C203.307 12.7794 222.293 13.611 235.429 6.98719C254.978 14.5477 294.958 16.2401 296.383 2.06678C296.561 0.37641 290.542 -0.124463 288.395 1.23264Z" fill="#00B2A0"/>
</svg>
